<?xml version="1.0" encoding="UTF-8" standalone="no"?>
<!-- Created with Inkscape (http://www.inkscape.org/) -->

<svg
   xmlns:dc="http://purl.org/dc/elements/1.1/"
   xmlns:cc="http://creativecommons.org/ns#"
   xmlns:rdf="http://www.w3.org/1999/02/22-rdf-syntax-ns#"
   xmlns:svg="http://www.w3.org/2000/svg"
   xmlns="http://www.w3.org/2000/svg"
   xmlns:sodipodi="http://sodipodi.sourceforge.net/DTD/sodipodi-0.dtd"
   xmlns:inkscape="http://www.inkscape.org/namespaces/inkscape"
   width="210mm"
   height="297mm"
   viewBox="0 0 210 297"
   version="1.1"
   id="svg8"
   inkscape:version="0.92.3 (2405546, 2018-03-11)"
   sodipodi:docname="drone.svg">
  <defs
     id="defs2" />
  <sodipodi:namedview
     id="base"
     pagecolor="#ffffff"
     bordercolor="#666666"
     borderopacity="1.0"
     inkscape:pageopacity="0.0"
     inkscape:pageshadow="2"
     inkscape:zoom="0.98994949"
     inkscape:cx="126.96186"
     inkscape:cy="446.39653"
     inkscape:document-units="mm"
     inkscape:current-layer="layer1"
     showgrid="false"
     inkscape:window-width="1366"
     inkscape:window-height="705"
     inkscape:window-x="-8"
     inkscape:window-y="-8"
     inkscape:window-maximized="1" />
  <metadata
     id="metadata5">
    <rdf:RDF>
      <cc:Work
         rdf:about="">
        <dc:format>image/svg+xml</dc:format>
        <dc:type
           rdf:resource="http://purl.org/dc/dcmitype/StillImage" />
        <dc:title></dc:title>
      </cc:Work>
    </rdf:RDF>
  </metadata>
  <g
     inkscape:label="Capa 1"
     inkscape:groupmode="layer"
     id="layer1">
    <path
       style="fill:#f9f9f9;stroke-width:0.26458332"
       d="m 43.504911,182.60354 c -2.187732,-0.89701 -3.490286,-2.231 -4.245319,-4.34776 -1.518395,-4.25687 2.006106,-9.07574 6.637957,-9.07574 0.966493,0 2.505001,0.4835 2.505001,0.78724 0,0.55798 -0.926957,0.88697 -2.33695,0.82943 -2.454296,-0.10017 -3.983993,0.7959 -5.144521,3.01354 -2.047908,3.91334 1.649563,8.5658 6.010396,7.56278 2.684656,-0.61749 4.18293,-2.58472 4.166283,-5.47032 -0.0073,-1.26404 0.102378,-1.7509 0.469178,-2.08286 0.450227,-0.40744 0.496247,-0.38286 0.773822,0.41339 0.925213,2.65407 -0.370847,6.01572 -2.967067,7.69581 -1.071427,0.69335 -1.584249,0.84098 -3.175,0.91401 -1.104968,0.0507 -2.229821,-0.0493 -2.69378,-0.23952 z m 21.39582,-0.0341 c -1.21777,-0.55006 -2.96427,-2.21925 -3.57536,-3.41708 -0.68515,-1.343 -0.91074,-3.53021 -0.49427,-4.79213 0.3073,-0.93114 0.3488,-0.95886 0.8103,-0.5412 0.3744,0.33882 0.48641,0.8252 0.48641,2.11206 0,2.90116 1.46699,4.82484 4.14998,5.44195 4.36534,1.00406 8.06042,-3.6454 6.0104,-7.56278 -1.16053,-2.21764 -2.69023,-3.11371 -5.14452,-3.01354 -2.16374,0.0883 -3.12625,-0.76058 -1.50372,-1.3262 3.20108,-1.11591 7.30692,1.16667 8.31093,4.62033 0.96987,3.33625 -0.48154,6.73458 -3.50313,8.20218 -1.31039,0.63647 -4.40816,0.79083 -5.54702,0.27641 z m -20.611249,-5.04299 c -1.337742,-1.33774 -0.381144,-3.5839 1.526318,-3.5839 0.758624,0 1.220502,-0.34791 3.424717,-2.57969 3.091735,-3.13039 3.509828,-3.86317 3.509828,-6.15156 0,-2.24409 -0.394916,-2.94557 -3.388243,-6.01849 -2.105074,-2.16105 -2.545003,-2.49086 -3.430325,-2.57171 -2.131883,-0.19466 -3.022422,-2.24861 -1.594189,-3.67684 1.369466,-1.36947 3.588712,-0.45991 3.588712,1.47084 0,0.864 0.256468,1.21153 2.575474,3.48991 2.803249,2.75414 4.224837,3.5905 6.102857,3.5905 1.87796,0 3.29962,-0.83637 6.10248,-3.59012 2.33148,-2.29064 2.57257,-2.61859 2.54853,-3.46674 -0.0321,-1.13138 1.02057,-2.19193 2.17558,-2.19193 1.00002,0 2.13799,1.15666 2.13799,2.1731 0,1.12418 -1.3577,2.43257 -2.32391,2.23951 -0.63213,-0.1263 -1.02512,0.16527 -3.2594,2.41824 -3.11207,3.13809 -3.52698,3.85966 -3.52698,6.13373 0,2.28839 0.41809,3.02117 3.50983,6.15156 2.20421,2.23178 2.66609,2.57969 3.42471,2.57969 1.14864,0 2.17575,0.99922 2.17575,2.11667 0,1.14671 -1.02506,2.11667 -2.23693,2.11667 -1.24028,0 -1.9964,-0.76131 -1.9964,-2.01011 0,-0.81467 -0.25724,-1.22005 -1.78594,-2.81433 -3.85989,-4.02552 -5.72676,-4.90469 -8.62545,-4.06201 -1.310617,0.381 -1.86863,0.78691 -4.296322,3.12519 -2.062175,1.98623 -2.756187,2.8169 -2.66019,3.184 0.183279,0.70086 -0.324657,2.01099 -0.898781,2.31826 -0.874204,0.46786 -2.092549,0.29673 -2.779716,-0.39044 z m -1.178598,-16.8166 c -2.396981,-1.11651 -4.233334,-3.7956 -4.233334,-6.17609 0,-3.69154 3.276843,-7.04955 6.879167,-7.04955 1.327106,0 3.33486,0.78564 4.452454,1.74226 1.705512,1.45985 2.275341,2.7535 2.285732,5.18914 0.0094,2.20192 -0.312442,2.94084 -1.023755,2.3505 -0.280553,-0.23284 -0.388597,-0.83833 -0.376625,-2.11066 0.0191,-2.02952 -0.331865,-2.88994 -1.72484,-4.22863 -2.011897,-1.93349 -5.277182,-1.89186 -7.310068,0.0932 -2.797297,2.73149 -2.043329,7.17373 1.492306,8.7924 1.18136,0.54084 1.700702,0.63695 2.714867,0.50242 1.033672,-0.13712 1.334567,-0.0774 1.712148,0.33982 0.618066,0.68296 0.253005,0.87319 -1.927561,1.00445 -1.378414,0.083 -2.002606,-0.0124 -2.940491,-0.44926 z m 22.291147,0.25986 c -1.30847,-0.52594 -0.11134,-1.38327 1.60335,-1.14824 0.86683,0.11881 1.47975,0.0173 2.42816,-0.40225 2.76984,-1.22524 4.01629,-3.81027 3.15601,-6.54531 -1.23305,-3.92019 -5.95713,-5.16318 -8.85787,-2.33068 -1.23858,1.20944 -1.67237,2.38464 -1.61923,4.38672 0.028,1.05313 -0.0792,1.59125 -0.36406,1.82764 -0.61632,0.51149 -0.93675,-0.008 -1.09122,-1.7683 -0.28059,-3.19796 1.73877,-6.21063 4.76538,-7.10943 1.68884,-0.50153 2.3831,-0.49702 4.16479,0.0271 2.64429,0.77785 4.74437,3.71119 4.74437,6.62682 0,2.38776 -1.85327,5.0842 -4.23333,6.15933 -1.2606,0.56944 -3.62185,0.70852 -4.69635,0.27662 z"
       id="path41"
       inkscape:connector-curvature="0" />
    <path
       style="fill:#f9f9f9;stroke-width:0.26458332"
       d="m 32.795548,191.4127 c 0,-3.58658 0.06063,-4.23334 0.396875,-4.23334 0.218282,0 0.396875,0.18535 0.396875,0.41188 0,0.37278 0.05582,0.37278 0.588038,0 0.937591,-0.65671 1.997197,-0.51318 2.903711,0.39333 0.748026,0.74803 0.796444,0.91093 0.681766,2.29379 -0.101199,1.22033 -0.257651,1.60402 -0.868185,2.12918 -0.735882,0.63298 -1.692986,0.71055 -2.793746,0.22643 -0.35712,-0.15707 -0.398475,0.0387 -0.298928,1.41489 0.107581,1.48729 0.07693,1.59717 -0.445439,1.59717 -0.548193,0 -0.560967,-0.0964 -0.560967,-4.23333 z m 3.556872,0.20571 c 0.907587,-1.29576 0.237632,-3.6453 -1.039434,-3.6453 -0.992699,0 -1.459104,0.6766 -1.459104,2.11667 0,1.44007 0.466405,2.11667 1.459104,2.11667 0.348562,0 0.810665,-0.26143 1.039434,-0.58804 z m -10.005104,0.25731 c 0.386185,-0.61847 0.92346,-1.44052 1.193944,-1.82678 0.647939,-0.9253 0.626699,-1.12129 -0.262804,-2.42503 -0.415026,-0.6083 -0.895465,-1.3739 -1.067642,-1.70132 -0.274023,-0.52109 -0.248572,-0.59531 0.204151,-0.59531 0.344045,0 0.82202,0.49837 1.427658,1.48859 l 0.910455,1.48858 0.896756,-1.48108 c 0.53217,-0.87893 1.085002,-1.48413 1.359777,-1.48859 0.647759,-0.0105 0.601826,0.13944 -0.614811,2.0068 l -1.077832,1.65432 0.905389,1.41536 c 1.543826,2.41338 1.612595,2.58894 1.014157,2.58894 -0.352013,0 -0.83453,-0.5189 -1.497736,-1.61065 l -0.978417,-1.61065 -1.01839,1.61065 c -0.702545,1.11112 -1.185622,1.61065 -1.557601,1.61065 -0.516997,0 -0.510285,-0.0463 0.162946,-1.12448 z m 12.798232,-1.78594 c 0,-2.43716 0.06589,-2.91042 0.405179,-2.91042 0.222848,0 0.473055,0.17689 0.556015,0.39308 0.133428,0.3477 0.215603,0.3477 0.712026,0 0.733686,-0.5139 1.766363,-0.51167 1.766363,0.004 0,0.24527 -0.248739,0.39687 -0.651151,0.39687 -1.211668,0 -1.730099,0.92671 -1.730099,3.0926 0,1.7581 -0.04825,1.93449 -0.529166,1.93449 -0.497096,0 -0.529167,-0.17639 -0.529167,-2.91042 z m 5.006731,2.13702 c -0.654725,-0.65473 -0.773398,-0.98264 -0.773398,-2.13702 0,-1.15438 0.118673,-1.48229 0.773398,-2.13702 1.595536,-1.59554 3.989102,-0.56184 3.989102,1.72275 0,0.66764 -0.03236,0.67885 -1.959605,0.67885 -1.807482,0 -1.94921,0.0397 -1.825705,0.51203 0.264861,1.01284 1.034472,1.42638 2.325261,1.24945 0.916984,-0.12568 1.195466,-0.0792 1.195466,0.19965 0,0.47298 -0.585697,0.68471 -1.894076,0.68471 -0.815536,0 -1.233749,-0.17671 -1.830443,-0.7734 z m 2.930769,-2.94816 c 0,-1.16284 -1.398856,-1.72096 -2.23006,-0.88975 -0.800586,0.80058 -0.513252,1.17172 0.907143,1.17172 0.759959,0 1.322917,-0.11999 1.322917,-0.28197 z m 2.447395,3.54633 c -0.181901,-0.0734 -0.330729,-0.29652 -0.330729,-0.49581 0,-0.27715 0.297621,-0.32712 1.265571,-0.21248 1.001678,0.11864 1.3447,0.0545 1.645065,-0.30737 0.336492,-0.40545 0.309687,-0.51379 -0.23655,-0.95611 -0.338823,-0.27436 -0.76539,-0.49884 -0.947926,-0.49884 -0.182534,0 -0.645593,-0.24676 -1.02902,-0.54837 -1.41921,-1.11635 -0.52749,-2.63045 1.544545,-2.62257 1.148419,0.004 1.976657,0.36484 1.629381,0.70916 -0.118057,0.11705 -0.766424,0.21283 -1.440812,0.21283 -1.65231,0 -1.859072,0.71336 -0.398256,1.37405 0.555892,0.25142 1.21907,0.6291 1.473731,0.83931 0.659133,0.54407 0.591741,1.76751 -0.125018,2.26955 -0.556072,0.38949 -2.330081,0.52713 -3.049982,0.23665 z m 5.027084,0 c -0.181902,-0.0734 -0.33073,-0.31259 -0.33073,-0.53154 0,-0.31713 0.212937,-0.3621 1.047176,-0.22116 2.402192,0.40585 2.917682,-0.72833 0.785029,-1.72722 -1.864571,-0.87332 -2.262033,-1.67753 -1.303038,-2.63652 0.811675,-0.81168 3.439583,-0.69547 3.439583,0.1521 0,0.26502 -0.364093,0.34485 -1.37941,0.30242 -1.135023,-0.0474 -1.396463,0.0254 -1.475669,0.41089 -0.07193,0.35009 0.271214,0.63104 1.357437,1.11142 2.696199,1.19239 2.1507,3.3575 -0.829911,3.29395 -0.538855,-0.0115 -1.128566,-0.0809 -1.310467,-0.15434 z m 5.22552,-3.68925 v -3.86447 l 2.139757,0.0972 c 2.095153,0.0951 2.159166,0.11835 3.071037,1.11338 0.905756,0.98835 0.928486,1.0657 0.829257,2.82182 -0.153585,2.71807 -1.329949,3.69658 -4.444053,3.69658 h -1.595998 z m 4.416203,2.16391 c 0.474675,-0.55184 0.61088,-1.02808 0.61088,-2.13589 0,-1.98115 -0.710985,-2.79701 -2.595255,-2.97806 L 60.84138,186.0537 v 3.11004 3.11003 l 1.373495,-0.13197 c 1.066051,-0.10244 1.510233,-0.29095 1.984375,-0.84217 z m 3.256713,-1.20985 c 0,-2.41065 0.06815,-2.91042 0.396875,-2.91042 0.218282,0 0.396875,0.1786 0.396875,0.39688 0,0.21828 0.104484,0.39687 0.232188,0.39687 0.127701,0 0.380405,-0.17859 0.561562,-0.39687 0.181158,-0.21828 0.671986,-0.39688 1.090729,-0.39688 0.50037,0 0.761355,0.13605 0.761355,0.39688 0,0.24694 -0.249883,0.39687 -0.661459,0.39687 -1.250119,0 -1.719791,0.83096 -1.719791,3.04271 0,1.80799 -0.04704,1.98438 -0.529167,1.98438 -0.497096,0 -0.529167,-0.17639 -0.529167,-2.91042 z m 5.013569,2.18167 c -0.666049,-0.59512 -0.824257,-0.95211 -0.862754,-1.94678 -0.02593,-0.66992 0.114179,-1.51946 0.311341,-1.88786 0.73773,-1.37846 2.692543,-1.65934 3.984209,-0.57247 0.737368,0.62045 0.814052,0.83009 0.814052,2.22544 0,1.39535 -0.07668,1.60499 -0.814052,2.22544 -1.105058,0.92985 -2.361051,0.91383 -3.432796,-0.0438 z m 2.492618,-0.22069 c 0.675606,-0.25925 1.0502,-1.81347 0.695857,-2.88714 -0.762027,-2.30896 -3.577029,-0.9776 -3.04591,1.44057 0.298659,1.35979 1.173263,1.89815 2.350053,1.44657 z m 3.34173,-1.96098 c 0,-2.41065 0.06815,-2.91042 0.396875,-2.91042 0.218281,0 0.396875,0.18535 0.396875,0.41188 0,0.37278 0.05582,0.37278 0.588039,0 0.858647,-0.60142 2.198634,-0.52257 2.841236,0.16718 0.458282,0.49191 0.539474,0.92993 0.539474,2.91042 0,2.15497 -0.04004,2.33136 -0.529166,2.33136 -0.486664,0 -0.529167,-0.17639 -0.529167,-2.19604 0,-2.31581 -0.217114,-2.83105 -1.192972,-2.83105 -1.19367,0 -1.52787,0.5778 -1.660622,2.87105 -0.09202,1.58965 -0.220139,2.15604 -0.487694,2.15604 -0.285456,0 -0.362878,-0.62095 -0.362878,-2.91042 z m 7.488332,2.64271 c -1.246759,-0.50208 -1.776807,-2.73972 -1.003303,-4.23551 1.109578,-2.14568 4.084998,-1.5752 4.512538,0.8652 l 0.173823,0.99218 h -2.01382 c -2.217844,0 -2.522773,0.2848 -1.451703,1.35587 0.473012,0.47301 0.766607,0.5379 1.852083,0.40934 0.976215,-0.11562 1.289966,-0.0668 1.289966,0.20078 0,0.63236 -2.155971,0.89686 -3.359584,0.41214 z m 2.565834,-3.37759 c 0,-0.53815 -0.888463,-1.38179 -1.455208,-1.38179 -0.566746,0 -1.455209,0.84364 -1.455209,1.38179 0,0.11314 0.654844,0.20571 1.455209,0.20571 0.800364,0 1.455208,-0.0926 1.455208,-0.20571 z"
       id="path260"
       inkscape:connector-curvature="0" />
  </g>
</svg>
